<?xml version="1.0" encoding="UTF-8"?> <svg xmlns="http://www.w3.org/2000/svg" width="40" height="40" viewBox="0 0 40 40" fill="none"> <path d="M29.291 0H10.709C4.79457 0 0 4.79457 0 10.709V29.291C0 35.2054 4.79457 40 10.709 40H29.291C35.2054 40 40 35.2054 40 29.291V10.709C40 4.79457 35.2054 0 29.291 0Z" fill="#5F80F5"></path> <path d="M31.8241 13.267L27.9228 26.534C27.9156 26.5747 27.8932 26.6112 27.86 26.6358C27.8269 26.6605 27.7855 26.6715 27.7445 26.6667C27.7243 26.6696 27.7038 26.6685 27.684 26.6633C27.6643 26.6582 27.6458 26.6492 27.6296 26.6369C27.6134 26.6245 27.5998 26.609 27.5896 26.5914C27.5794 26.5737 27.5729 26.5542 27.5704 26.534L24.2909 15.2156C24.1247 14.6392 23.7747 14.1328 23.2943 13.7736C22.8138 13.4144 22.2291 13.2219 21.6292 13.2255C21.0267 13.2237 20.4401 13.4199 19.96 13.7839C19.4798 14.148 19.1325 14.6598 18.9717 15.2405L16.737 23.0224C15.8166 25.8168 13.9924 26.8367 12.5911 26.6169C11.2644 26.4055 10.402 25.1451 10.402 23.408V13.267H7.83154V23.408C7.83154 26.8988 10.0206 28.7977 12.1889 29.1542C14.6765 29.5688 17.8108 28.0514 19.1997 23.7977L21.4385 15.9453C21.4457 15.8994 21.4705 15.8581 21.5077 15.8302C21.5449 15.8023 21.5915 15.7901 21.6375 15.796C21.6819 15.7899 21.7269 15.8012 21.7632 15.8275C21.7995 15.8537 21.8242 15.893 21.8324 15.937L25.1077 27.243C25.2714 27.8173 25.6186 28.3222 26.0962 28.6808C26.5738 29.0394 27.1556 29.2318 27.7528 29.2289C28.3495 29.2321 28.9308 29.0402 29.4083 28.6825C29.8859 28.3247 30.2334 27.8207 30.3979 27.2471L34.5024 13.267H31.8241Z" fill="white"></path> </svg> 